<svg width="1200" height="800" viewBox="0 0 1200 800" fill="none" xmlns="http://www.w3.org/2000/svg">
  <defs>
    <linearGradient id="bg" x1="0" y1="0" x2="1200" y2="800" gradientUnits="userSpaceOnUse">
      <stop stop-color="#F8FAFC"/>
      <stop offset="1" stop-color="#EEF2FF"/>
    </linearGradient>
    <linearGradient id="blob" x1="250" y1="160" x2="950" y2="640" gradientUnits="userSpaceOnUse">
      <stop stop-color="#111827" stop-opacity="0.08"/>
      <stop offset="1" stop-color="#111827" stop-opacity="0.03"/>
    </linearGradient>
  </defs>

  <rect width="1200" height="800" rx="48" fill="url(#bg)"/>

  <path d="M250 420C250 250 360 160 520 160C690 160 740 260 860 260C1000 260 1050 360 1050 470C1050 640 920 700 760 700C600 700 560 590 430 590C300 590 250 540 250 420Z" fill="url(#blob)"/>

  <g stroke="#111827" stroke-opacity="0.08" stroke-width="2">
    <path d="M110 180H520"/>
    <path d="M110 220H430"/>
    <path d="M110 260H470"/>
    <path d="M110 300H390"/>
  </g>

  <g stroke="#111827" stroke-opacity="0.10" stroke-width="2">
    <circle cx="930" cy="220" r="70"/>
    <circle cx="980" cy="310" r="120"/>
  </g>

  <g fill="#111827" fill-opacity="0.08">
    <rect x="90" y="530" width="420" height="160" rx="20"/>
    <rect x="540" y="520" width="560" height="180" rx="24"/>
  </g>

  <g fill="#111827" fill-opacity="0.12">
    <circle cx="190" cy="610" r="8"/>
    <circle cx="230" cy="610" r="8"/>
    <circle cx="270" cy="610" r="8"/>
  </g>
</svg>
